<svg width="1485" height="421" viewBox="0 0 1485 421" fill="none" xmlns="http://www.w3.org/2000/svg">
<path d="M1187.86 56.3035C1135.13 109.036 1131.95 112.363 1136.84 108.841C1163.06 90.2031 1193.43 78.6586 1223.81 75.8704C1232.03 75.0877 1250.03 75.1855 1258.45 76.066C1290.05 79.3435 1323.95 91.2793 1351.73 108.938C1354.62 110.748 1346.11 102.09 1299.63 55.5697C1269.11 24.9965 1244.11 -0.000149614 1244.11 -0.000149614C1244.11 -0.000149614 1218.77 25.3389 1187.86 56.3035Z" fill="#00A66B"/>
<path d="M873.129 216.205V398.666H907.371H941.613V359.386V320.154L954.038 307.729L966.414 295.353L999.433 346.912L1032.4 398.421L1071.63 398.568C1093.21 398.617 1110.87 398.568 1110.87 398.47C1110.87 398.373 1088.27 364.766 1060.68 323.774C1033.09 282.781 1010.44 249.126 1010.34 248.98C1010.19 248.735 1089.44 156.868 1102.45 142.193C1103.14 141.411 1101.18 141.362 1062.14 141.362H1021.1L988.084 180.104C969.936 201.432 952.081 222.662 948.461 227.358L941.858 235.87L941.711 134.807L941.613 33.744H907.371H873.129V216.205Z" fill="#00A66B"/>
<path d="M775.233 39.6751C760.02 41.3382 748.084 51.1217 744.317 64.9163C742.85 70.4439 742.85 79.4936 744.366 84.8745C746.127 91.087 748.475 95.0982 753.22 99.7942C761.194 107.768 770.684 110.996 784.234 110.409C796.708 109.871 806.051 105.566 812.703 97.3484C818.182 90.5489 820.53 82.9178 820.09 73.1833C819.65 62.9107 817.155 57.0896 810.209 50.1433C806.589 46.4745 805.072 45.3494 801.648 43.6863C796.708 41.2893 793.137 40.311 787.218 39.6261C782.277 39.088 780.516 39.088 775.233 39.6751Z" fill="white"/>
<path d="M1436.96 40.3627C1428.94 41.8791 1422.48 45.4011 1417.05 51.2223C1411.08 57.6304 1408.25 65.2126 1408.25 74.8493C1408.25 86.1002 1412.26 94.9053 1420.57 102.047C1427.81 108.26 1439.99 111.439 1451.54 110.119C1461.57 108.993 1468.76 105.814 1474.72 99.797C1476.78 97.7914 1479.18 94.8564 1480.06 93.34C1485.83 83.5565 1486.46 69.5662 1481.62 59.4404C1477.32 50.4396 1469.05 43.738 1458.78 41.0475C1453.69 39.6778 1442.39 39.3354 1436.96 40.3627Z" fill="#00A66B"/>
<path d="M0.165095 73.9569C0.0183439 74.2993 -0.0305732 152.273 0.0183439 247.27L0.165095 419.948L67.9154 420.095C135.763 420.241 148.237 420.046 160.516 418.48C191.48 414.665 215.156 404.686 231.641 388.543C247.931 372.547 256.344 351.415 257.518 323.337C258.839 292.03 247.099 266.837 224.206 251.918C218.972 248.542 213.248 245.852 206.547 243.651L200.97 241.841L207.476 238.612C215.792 234.454 221.466 230.394 227.63 224.279C237.902 214.007 244.702 201.337 247.882 186.76C252.382 165.872 248.762 139.946 238.832 122.189C224.059 95.8229 194.758 80.0716 151.075 75.082C138.552 73.6634 123.779 73.3699 62.1431 73.3699C13.1771 73.3699 0.311847 73.5167 0.165095 73.9569ZM133.22 132.07C158.852 134.419 171.766 143.028 176.609 160.932C177.588 164.6 177.734 166.215 177.734 175.118C177.734 186.613 177.098 189.793 173.528 196.69C167.902 207.452 157.287 214.153 140.704 217.235C135.519 218.263 133.269 218.311 103.527 218.507L71.8287 218.752V175.167V131.581H99.8583C115.218 131.581 130.285 131.826 133.22 132.07ZM152.542 270.848C170.397 275.251 180.18 284.692 184.436 301.666C185.414 305.433 185.561 307.243 185.561 316.488C185.561 326.027 185.463 327.348 184.436 330.87C179.398 348.333 164.429 359.584 143.101 361.932C140.215 362.275 125.54 362.47 105.092 362.47H71.8287V315.999V269.479L110.131 269.674C146.965 269.821 148.531 269.87 152.542 270.848Z" fill="white"/>
<path d="M1226.4 122.049C1205.85 124.641 1185.6 131.734 1168.77 142.203C1136.44 162.357 1113.45 194.642 1105.23 231.428C1102.64 243.217 1102.25 247.179 1102.25 262.686C1102.3 275.208 1102.44 277.997 1103.37 283.671C1108.46 314.636 1121.72 340.709 1143.29 362.281C1154.54 373.532 1165.74 381.603 1179.83 388.598C1193.62 395.496 1207.17 399.8 1222.39 402.197C1231.88 403.665 1253.11 403.812 1262.21 402.442C1273.95 400.681 1283.73 398.088 1294.25 394.028C1338.37 376.907 1370.65 339.192 1381.02 292.77C1383.52 281.763 1384.01 276.627 1383.96 262.197C1383.96 250.75 1383.81 247.717 1382.88 241.7C1380.49 226.487 1376.18 212.937 1369.28 199.142C1362.29 185.054 1354.22 173.852 1342.97 162.601C1321.2 140.882 1294.74 127.528 1263.43 122.538C1256.29 121.364 1233.98 121.119 1226.4 122.049ZM1250.95 188.332C1260.4 189.457 1267 191.316 1275.51 195.425C1312.59 213.182 1328.05 258.087 1309.9 295.216C1302.61 310.184 1290.87 321.875 1275.9 329.213C1250.66 341.589 1220.72 338.752 1198.22 321.827C1174.4 303.923 1163.54 273.105 1170.93 243.999C1179.98 208.241 1214.51 184.174 1250.95 188.332Z" fill="#00A66B"/>
<path d="M400.028 136.862C350.083 139.797 312.124 165.038 302.438 201.677C301.215 206.373 300.237 212.977 300.237 216.597V218.701H334.723H369.21V216.597C369.259 206.569 375.569 196.981 385.206 192.139C391.908 188.812 395.528 188.127 406.387 188.127C416.855 188.127 419.79 188.714 426.345 191.894C432.9 195.074 437.841 200.699 440.972 208.428C443.222 214.053 443.662 217.233 443.907 229.805L444.151 241.594L418.568 241.838C391.272 242.034 387.309 242.328 372.879 244.92C333.598 251.915 307.526 271.042 298.574 299.414C293.242 316.095 293.144 334.879 298.28 350.337C301.607 360.365 306.352 368.289 313.738 376.116C330.321 393.775 351.453 402.727 378.26 403.461C395.136 403.95 408.197 401.504 420.818 395.585C429.378 391.525 435.297 387.367 442.439 380.47C446.597 376.409 446.939 376.165 447.184 377.241C447.331 377.877 447.771 380.176 448.26 382.328C449.19 386.78 451.538 394.166 452.907 396.906L453.837 398.716H488.568H523.299V396.612C523.299 395.291 522.614 392.943 521.342 390.057C519.484 385.753 517.136 377.632 516.01 371.811C513.809 360.462 513.858 361.343 513.516 287.674C513.222 219.19 513.173 217.331 512.146 211.118C509.015 192.041 502.509 178.197 491.014 166.164C476.583 151.097 457.506 141.95 432.949 138.281C423.508 136.862 410.007 136.275 400.028 136.862ZM444.053 304.11V326.416L441.559 330.036C434.514 340.162 421.894 347.548 407.17 350.092C401.642 351.07 390.049 350.777 385.597 349.603C377.33 347.353 369.65 341.336 366.324 334.487C362.704 327.003 362.606 315.654 366.128 306.751C370.922 294.718 381.097 287.233 397.191 283.956C405.115 282.293 410.643 281.95 428.547 281.853L444.053 281.804V304.11Z" fill="white"/>
<path d="M682.63 137.008C668.298 138.671 656.215 144.492 645.991 154.716C642.176 158.581 637.578 164.353 634.887 168.658C634.007 170.076 633.224 171.152 633.126 171.054C633.028 170.957 632.588 165.184 632.197 158.189C631.757 151.243 631.316 144.59 631.17 143.416L630.925 141.362H598.395H565.914V270.014V398.666H600.401H634.887V314.529V230.342L635.915 228.288C642.323 215.667 654.894 207.693 672.798 204.905C678.277 204.025 695.202 204.171 703.567 205.15C707.334 205.59 710.464 205.884 710.562 205.786C710.856 205.492 711.785 140.873 711.54 140.139C711.198 139.307 704.056 137.644 697.893 137.008C692.561 136.421 687.62 136.421 682.63 137.008Z" fill="white"/>
<path d="M747.348 270.014V398.666H781.834H816.321V270.014V141.362H781.834H747.348V270.014Z" fill="white"/>
<path d="M1412.19 270.014V398.666H1446.43H1480.68V270.014V141.362H1446.43H1412.19V270.014Z" fill="#00A66B"/>
</svg>
